<svg xmlns="http://www.w3.org/2000/svg" viewBox="0 0 686.18 100.98">
  <defs>
    <style>
      .cls-1{fill:#efedf8}
    </style>
  </defs>
  <g id="Layer_2" data-name="Layer 2">
    <g id="Layer_2-2" data-name="Layer 2">
      <path d="M30.65 0L0 100.98h12.14L42.79 0H30.65zM401.9 100.98h12.14L444.69 0H431.2l-29.3 100.98zM346 45.72a13.76 13.76 0 0 0-10.15 3.88q-3.88 3.88-3.88 10.58v1.27q0 6.7 3.88 10.58A13.76 13.76 0 0 0 346 75.91a13.53 13.53 0 0 0 10.15-4A14.37 14.37 0 0 0 360 61.45v-1.27a14.37 14.37 0 0 0-3.88-10.47A13.53 13.53 0 0 0 346 45.72zM157.3 49.44a13.18 13.18 0 0 0-4.46-2.76 15.78 15.78 0 0 0-10.84 0 12.85 12.85 0 0 0-7.5 7.17 15 15 0 0 0-1.11 5.9v2.13a15 15 0 0 0 1.11 5.9A12.85 12.85 0 0 0 142 75a15.78 15.78 0 0 0 10.84 0 13.18 13.18 0 0 0 4.46-2.76 13 13 0 0 0 3-4.41 15 15 0 0 0 1.12-5.9v-2.18a15 15 0 0 0-1.12-5.9 13 13 0 0 0-3-4.41z" class="cls-1"/>
      <path d="M54.89 0L24.24 101H389.8L419.1 0zm55.76 47.21H89.93v40H76.54v-40h-15V34.46h15V23.62a10.55 10.55 0 0 1 3.08-7.71 10.29 10.29 0 0 1 7.65-3.14h21.47v12.76H92.8c-1.92 0-2.87 1.06-2.87 3.19v5.74h20.72zm64.19 14.24a28.64 28.64 0 0 1-2.23 11.64 24.74 24.74 0 0 1-6.06 8.5 26.41 26.41 0 0 1-8.77 5.26 30.58 30.58 0 0 1-20.73 0 26.37 26.37 0 0 1-8.76-5.26 24.74 24.74 0 0 1-6.06-8.5A28.47 28.47 0 0 1 120 61.45v-1.27a28.2 28.2 0 0 1 2.23-11.53 25.38 25.38 0 0 1 6.06-8.56 26 26 0 0 1 8.76-5.31 30.58 30.58 0 0 1 20.73 0 26 26 0 0 1 8.77 5.31 25.38 25.38 0 0 1 6.06 8.56 28.37 28.37 0 0 1 2.23 11.53zm63.75 25.72H225.2v-7.65h-1.91q-3.51 9.14-15.09 9.14a20.52 20.52 0 0 1-7.34-1.28 15.75 15.75 0 0 1-6-3.93 18.49 18.49 0 0 1-4-6.64 28 28 0 0 1-1.43-9.41V34.46h13.39v30.18q0 5.64 2.66 8.77t8 3.13q6.06 0 8.87-3.87t2.82-10.58V34.46h13.39zm65.3 0H290.5v-30c0-3.75-.91-6.71-2.71-8.87s-4.41-3.25-7.81-3.25q-6 0-8.88 4t-2.92 10.68v27.44h-13.39V34.46h13.39v7.86h1.91a14 14 0 0 1 5.85-6.91A17.89 17.89 0 0 1 285.4 33a20.84 20.84 0 0 1 7.17 1.22 16.11 16.11 0 0 1 5.9 3.77 17.43 17.43 0 0 1 4 6.49 27.22 27.22 0 0 1 1.44 9.35zm69.49 0H360v-7.65h-1.91A19.65 19.65 0 0 1 356 83a12 12 0 0 1-3.18 2.93 16.86 16.86 0 0 1-4.68 2 25.28 25.28 0 0 1-6.54.74 23.25 23.25 0 0 1-9.08-1.75 20.52 20.52 0 0 1-7.34-5.21 24.43 24.43 0 0 1-4.89-8.45 34.58 34.58 0 0 1-1.75-11.48v-1.92a32.43 32.43 0 0 1 1.86-11.37 24.83 24.83 0 0 1 5.1-8.49 21.68 21.68 0 0 1 7.55-5.26 23.14 23.14 0 0 1 9.08-1.74q6.39 0 10.1 2.39a16.27 16.27 0 0 1 5.85 6.75H360V12.77h13.39zM480 12.77h-13.41v21.69H451v12.75h15.63v31.67a8.15 8.15 0 0 0 2.28 6 7.89 7.89 0 0 0 5.9 2.34h22.32v-12.8h-14.28q-2.87 0-2.87-3.19v-24h19V34.46H480zM558.79 41.42a25.13 25.13 0 0 0-8.08-6.06A26.44 26.44 0 0 0 539 33a27.06 27.06 0 0 0-10.36 2 26 26 0 0 0-8.45 5.47 25 25 0 0 0-5.69 8.5A28.62 28.62 0 0 0 512.45 60v.64a33 33 0 0 0 2 11.8 25 25 0 0 0 5.52 8.82 24.08 24.08 0 0 0 8.45 5.53 29.62 29.62 0 0 0 10.84 1.91 31.64 31.64 0 0 0 9.09-1.17 24.82 24.82 0 0 0 6.59-3 18.67 18.67 0 0 0 4.41-4 22.86 22.86 0 0 0 2.66-4.2L550.5 70a10.45 10.45 0 0 1-3.83 4.2Q544 75.9 539 75.91a14.57 14.57 0 0 1-4.83-.8 13.2 13.2 0 0 1-4-2.23 10.78 10.78 0 0 1-2.77-3.4 10.38 10.38 0 0 1-1.11-4.31H565v-7.12a26.72 26.72 0 0 0-1.48-8.55 24.05 24.05 0 0 0-4.73-8.08zm-32.31 12.27a11.93 11.93 0 0 1 4.15-6 12.63 12.63 0 0 1 8.28-2.61 13.93 13.93 0 0 1 8.45 2.45 9.43 9.43 0 0 1 4 6.16zM613.85 59.22l12.75-24.76h-14.77l-9.78 19.34h-1.91l-9.78-19.34h-14.88l12.86 24.76v1.91l-13.5 26.04h15.41l9.89-20.62h1.91l9.88 20.62h15.42l-13.5-26.04v-1.91zM686.18 47.21V34.46h-19V12.77h-13.42v21.69h-15.62v12.75h15.62v31.67a8.12 8.12 0 0 0 2.29 6 7.88 7.88 0 0 0 5.9 2.34h22.31v-12.8H670q-2.87 0-2.87-3.19v-24z" class="cls-1"/>
    </g>
  </g>
</svg>